<?xml version="1.0" encoding="UTF-8"?>
<svg width="169px" height="120px" viewBox="0 0 169 120" version="1.1" xmlns="http://www.w3.org/2000/svg" xmlns:xlink="http://www.w3.org/1999/xlink">
    <title>LOGO/BMBF</title>
    <g id="LOGO/BMBF" stroke="none" stroke-width="1" fill="none" fill-rule="evenodd">
        <polygon id="Fill-1" fill="#FFFFFE" points="8.52651283e-14 120.007 169.224 120.007 169.224 -1.98951966e-13 8.52651283e-14 -1.98951966e-13"></polygon>
        <path d="M59.638,70.085 C59.638,71.025 59.021,71.394 58.529,71.394 C57.879,71.394 57.565,70.935 57.565,70.253 L57.565,66.332 L56.647,66.332 L56.647,70.644 C56.647,71.607 57.184,72.1 58.17,72.1 C58.763,72.1 59.301,71.82 59.604,71.305 L59.638,71.305 L59.638,71.988 L60.612,71.988 C60.578,71.595 60.556,71.204 60.556,70.812 L60.556,66.332 L59.638,66.332 L59.638,70.085" id="Fill-2" fill="#1A1919"></path>
        <path d="M66.201,71.988 L66.201,68.068 C66.201,66.948 65.898,66.22 64.689,66.22 C63.96,66.22 63.535,66.422 63.177,67.06 L63.133,67.06 L63.133,66.332 L62.158,66.332 C62.191,66.724 62.213,67.115 62.213,67.509 L62.213,71.988 L63.133,71.988 L63.133,68.638 C63.133,67.866 63.278,66.97 64.286,66.97 C65.069,66.97 65.282,67.464 65.282,68.068 L65.282,71.988 L66.201,71.988" id="Fill-3" fill="#1A1919"></path>
        <path d="M70.714,68.93 C70.714,70.072 70.714,71.35 69.684,71.35 C68.531,71.35 68.531,70.117 68.531,69.266 C68.531,67.755 68.666,66.97 69.651,66.97 C70.669,66.97 70.714,68.18 70.714,68.93 Z M70.714,66.902 L70.682,66.902 C70.367,66.456 69.976,66.22 69.439,66.22 C67.612,66.22 67.568,67.843 67.568,69.256 C67.568,71.742 68.486,72.1 69.394,72.1 C69.987,72.1 70.378,71.842 70.692,71.315 L70.714,71.315 L70.714,71.988 L71.633,71.988 L71.633,63.902 L70.714,63.902 L70.714,66.902 L70.714,66.902 Z" id="Fill-4" fill="#1A1919"></path>
        <polyline id="Fill-5" fill="#1A1919" points="76.527 71.988 76.527 68.292 79.35 68.292 79.35 67.395 76.527 67.395 76.527 64.797 79.505 64.797 79.505 63.902 75.496 63.902 75.496 71.988 76.527 71.988"></polyline>
        <path d="M82.326,71.35 C81.374,71.35 81.138,70.689 81.138,68.851 C81.138,67.305 81.619,66.97 82.326,66.97 C83.031,66.97 83.513,67.305 83.513,68.851 C83.513,70.689 83.278,71.35 82.326,71.35 Z M82.326,72.1 C83.524,72.1 84.476,71.742 84.476,69.244 C84.476,67.586 84.286,66.22 82.326,66.22 C80.366,66.22 80.175,67.586 80.175,69.244 C80.175,71.742 81.127,72.1 82.326,72.1 L82.326,72.1 Z" id="Fill-6" fill="#1A1919"></path>
        <path d="M86.829,66.332 L85.911,66.332 L85.911,71.988 L86.829,71.988 L86.829,68.651 C86.829,67.888 87.086,67.115 88.104,67.115 C88.272,67.115 88.43,67.15 88.598,67.173 L88.598,66.22 C87.702,66.22 87.233,66.32 86.852,67.183 L86.829,67.183 L86.829,66.332" id="Fill-7" fill="#1A1919"></path>
        <path d="M93.184,70.375 C93.184,68.651 90.36,68.673 90.36,67.676 C90.36,67.183 90.743,66.915 91.235,66.915 C91.817,66.915 92.131,67.228 92.12,67.821 L93.139,67.821 C93.217,66.702 92.356,66.22 91.348,66.22 C89.756,66.22 89.397,67.173 89.397,67.765 C89.397,69.457 92.221,69.479 92.221,70.487 C92.221,71.07 91.795,71.35 91.245,71.35 C90.317,71.35 90.305,70.588 90.305,70.263 L89.264,70.263 C89.229,71.562 89.993,72.1 91.213,72.1 C92.332,72.1 93.184,71.619 93.184,70.375" id="Fill-8" fill="#1A1919"></path>
        <path d="M98.254,68.145 C98.311,66.88 97.649,66.22 96.518,66.22 C94.559,66.22 94.368,67.586 94.368,69.244 C94.368,71.742 95.321,72.1 96.518,72.1 C97.147,72.1 98.335,71.697 98.299,70.106 L97.336,70.106 C97.37,71.126 96.731,71.35 96.518,71.35 C95.567,71.35 95.332,70.689 95.332,68.851 C95.332,67.305 95.813,66.97 96.518,66.97 C96.866,66.97 97.325,67.217 97.303,68.145 L98.254,68.145" id="Fill-9" fill="#1A1919"></path>
        <path d="M103.764,71.988 L103.764,67.978 C103.764,66.702 103.227,66.22 102.264,66.22 C101.526,66.22 101.1,66.399 100.731,67.06 L100.686,67.06 L100.686,63.902 L99.768,63.902 L99.768,71.988 L100.686,71.988 L100.686,68.661 C100.686,67.71 100.92,66.97 101.838,66.97 C102.624,66.97 102.846,67.464 102.846,68.158 L102.846,71.988 L103.764,71.988" id="Fill-10" fill="#1A1919"></path>
        <path d="M108.403,70.085 C108.403,71.025 107.788,71.394 107.294,71.394 C106.643,71.394 106.331,70.935 106.331,70.253 L106.331,66.332 L105.413,66.332 L105.413,70.644 C105.413,71.607 105.95,72.1 106.936,72.1 C107.53,72.1 108.067,71.82 108.37,71.305 L108.403,71.305 L108.403,71.988 L109.377,71.988 C109.342,71.595 109.321,71.204 109.321,70.812 L109.321,66.332 L108.403,66.332 L108.403,70.085" id="Fill-11" fill="#1A1919"></path>
        <path d="M114.965,71.988 L114.965,68.068 C114.965,66.948 114.663,66.22 113.454,66.22 C112.727,66.22 112.301,66.422 111.942,67.06 L111.897,67.06 L111.897,66.332 L110.924,66.332 C110.956,66.724 110.979,67.115 110.979,67.509 L110.979,71.988 L111.897,71.988 L111.897,68.638 C111.897,67.866 112.044,66.97 113.051,66.97 C113.835,66.97 114.047,67.464 114.047,68.068 L114.047,71.988 L114.965,71.988" id="Fill-12" fill="#1A1919"></path>
        <path d="M119.502,69.132 C119.502,69.917 119.536,71.226 118.428,71.226 C117.745,71.226 117.329,70.802 117.329,68.987 C117.329,68.236 117.364,66.982 118.405,66.982 C119.557,66.982 119.502,68.292 119.502,69.132 Z M119.481,67.026 L119.458,67.026 C119.2,66.478 118.731,66.22 118.137,66.22 C117.678,66.22 116.368,66.387 116.368,68.987 C116.368,70.667 116.669,71.988 118.204,71.988 C118.696,71.988 119.211,71.73 119.446,71.283 L119.481,71.283 L119.481,72.459 C119.481,73.041 119.133,73.433 118.495,73.433 C117.991,73.433 117.643,73.142 117.633,72.615 L116.602,72.615 C116.524,73.657 117.376,74.127 118.315,74.127 C119.557,74.127 120.399,73.825 120.399,72.559 L120.399,66.332 L119.481,66.332 L119.481,67.026 L119.481,67.026 Z" id="Fill-13" fill="#1A1919"></path>
        <path d="M56.244,54.332 L56.244,55.026 L57.117,55.026 L57.117,59.988 L58.036,59.988 L58.036,55.026 L59.178,55.026 L59.178,54.332 L58.036,54.332 L58.036,53.369 C58.036,52.91 58.203,52.495 59.178,52.561 L59.178,51.902 C59.044,51.879 58.931,51.868 58.74,51.868 C57.923,51.868 57.117,52.092 57.117,53.235 L57.117,54.332 L56.244,54.332" id="Fill-14" fill="#1A1919"></path>
        <path d="M60.542,53.38 L61.595,53.38 L61.595,52.216 L60.542,52.216 L60.542,53.38 Z M62.512,53.38 L63.566,53.38 L63.566,52.216 L62.512,52.216 L62.512,53.38 Z M63.084,58.085 C63.084,59.025 62.468,59.394 61.975,59.394 C61.326,59.394 61.012,58.934 61.012,58.253 L61.012,54.332 L60.093,54.332 L60.093,58.644 C60.093,59.607 60.631,60.1 61.617,60.1 C62.21,60.1 62.748,59.82 63.05,59.305 L63.084,59.305 L63.084,59.988 L64.058,59.988 C64.025,59.595 64.003,59.204 64.003,58.812 L64.003,54.332 L63.084,54.332 L63.084,58.085 L63.084,58.085 Z" id="Fill-15" fill="#1A1919"></path>
        <path d="M66.612,54.332 L65.694,54.332 L65.694,59.988 L66.612,59.988 L66.612,56.651 C66.612,55.888 66.87,55.115 67.89,55.115 C68.058,55.115 68.213,55.15 68.382,55.173 L68.382,54.22 C67.485,54.22 67.015,54.32 66.634,55.183 L66.612,55.183 L66.612,54.332" id="Fill-16" fill="#1A1919"></path>
        <path d="M72.205,56.203 L73.303,56.203 C74.356,56.203 75.149,56.426 75.149,57.715 C75.149,58.307 74.759,59.092 73.661,59.092 L72.205,59.092 L72.205,56.203 Z M72.205,52.797 L73.661,52.797 C74.523,52.797 74.904,53.346 74.904,54.017 C74.904,54.803 74.512,55.296 73.706,55.305 L72.205,55.305 L72.205,52.797 Z M73.773,59.988 C74.691,59.988 76.202,59.787 76.202,57.715 C76.202,56.606 75.699,55.911 74.546,55.776 L74.546,55.721 C75.587,55.486 75.934,54.813 75.934,53.804 C75.934,53.649 75.889,53.168 75.609,52.729 C75.307,52.282 74.926,51.902 73.806,51.902 L71.175,51.902 L71.175,59.988 L73.773,59.988 L73.773,59.988 Z" id="Fill-17" fill="#1A1919"></path>
        <path d="M77.676,59.988 L78.594,59.988 L78.594,54.332 L77.676,54.332 L77.676,59.988 Z M77.621,52.887 L78.652,52.887 L78.652,51.903 L77.621,51.903 L77.621,52.887 Z" id="Fill-18" fill="#1A1919"></path>
        <polygon id="Fill-19" fill="#1A1919" points="80.274 59.988 81.192 59.988 81.192 51.902 80.274 51.902"></polygon>
        <path d="M85.772,56.93 C85.772,58.072 85.772,59.35 84.741,59.35 C83.587,59.35 83.587,58.117 83.587,57.266 C83.587,55.755 83.722,54.97 84.708,54.97 C85.727,54.97 85.772,56.18 85.772,56.93 Z M85.772,54.902 L85.737,54.902 C85.424,54.456 85.033,54.22 84.495,54.22 C82.669,54.22 82.624,55.843 82.624,57.256 C82.624,59.742 83.543,60.1 84.45,60.1 C85.044,60.1 85.435,59.842 85.751,59.315 L85.772,59.315 L85.772,59.988 L86.69,59.988 L86.69,51.902 L85.772,51.902 L85.772,54.902 L85.772,54.902 Z" id="Fill-20" fill="#1A1919"></path>
        <path d="M91.407,58.085 C91.407,59.025 90.79,59.394 90.297,59.394 C89.647,59.394 89.335,58.934 89.335,58.253 L89.335,54.332 L88.415,54.332 L88.415,58.644 C88.415,59.607 88.952,60.1 89.938,60.1 C90.532,60.1 91.071,59.82 91.372,59.305 L91.407,59.305 L91.407,59.988 L92.379,59.988 C92.346,59.595 92.323,59.204 92.323,58.812 L92.323,54.332 L91.407,54.332 L91.407,58.085" id="Fill-21" fill="#1A1919"></path>
        <path d="M97.969,59.988 L97.969,56.068 C97.969,54.948 97.667,54.22 96.457,54.22 C95.729,54.22 95.303,54.422 94.946,55.06 L94.899,55.06 L94.899,54.332 L93.926,54.332 C93.96,54.724 93.983,55.115 93.983,55.509 L93.983,59.988 L94.899,59.988 L94.899,56.638 C94.899,55.866 95.045,54.97 96.053,54.97 C96.838,54.97 97.051,55.464 97.051,56.068 L97.051,59.988 L97.969,59.988" id="Fill-22" fill="#1A1919"></path>
        <path d="M102.506,57.132 C102.506,57.917 102.539,59.226 101.43,59.226 C100.747,59.226 100.333,58.802 100.333,56.987 C100.333,56.236 100.366,54.982 101.409,54.982 C102.561,54.982 102.506,56.292 102.506,57.132 Z M102.483,55.026 L102.461,55.026 C102.204,54.478 101.733,54.22 101.139,54.22 C100.68,54.22 99.37,54.387 99.37,56.987 C99.37,58.667 99.672,59.988 101.206,59.988 C101.698,59.988 102.213,59.73 102.45,59.283 L102.483,59.283 L102.483,60.458 C102.483,61.041 102.135,61.433 101.499,61.433 C100.993,61.433 100.645,61.141 100.635,60.615 L99.604,60.615 C99.526,61.656 100.377,62.127 101.319,62.127 C102.561,62.127 103.401,61.825 103.401,60.559 L103.401,54.332 L102.483,54.332 L102.483,55.026 L102.483,55.026 Z" id="Fill-23" fill="#1A1919"></path>
        <path d="M57.712,44.203 L58.81,44.203 C59.863,44.203 60.658,44.426 60.658,45.715 C60.658,46.307 60.266,47.092 59.169,47.092 L57.712,47.092 L57.712,44.203 Z M57.712,40.797 L59.169,40.797 C60.03,40.797 60.412,41.346 60.412,42.017 C60.412,42.803 60.019,43.296 59.212,43.305 L57.712,43.305 L57.712,40.797 Z M59.279,47.988 C60.199,47.988 61.71,47.787 61.71,45.715 C61.71,44.606 61.207,43.911 60.053,43.776 L60.053,43.721 C61.095,43.486 61.442,42.813 61.442,41.804 C61.442,41.649 61.398,41.168 61.117,40.729 C60.815,40.282 60.435,39.902 59.314,39.902 L56.682,39.902 L56.682,47.988 L59.279,47.988 L59.279,47.988 Z" id="Fill-24" fill="#1A1919"></path>
        <path d="M66.041,46.085 C66.041,47.025 65.424,47.394 64.931,47.394 C64.282,47.394 63.968,46.934 63.968,46.253 L63.968,42.332 L63.05,42.332 L63.05,46.644 C63.05,47.607 63.587,48.1 64.573,48.1 C65.166,48.1 65.704,47.82 66.006,47.305 L66.041,47.305 L66.041,47.988 L67.014,47.988 C66.981,47.595 66.958,47.204 66.958,46.812 L66.958,42.332 L66.041,42.332 L66.041,46.085" id="Fill-25" fill="#1A1919"></path>
        <path d="M72.604,47.988 L72.604,44.068 C72.604,42.948 72.301,42.22 71.091,42.22 C70.364,42.22 69.938,42.422 69.58,43.06 L69.535,43.06 L69.535,42.332 L68.561,42.332 C68.595,42.724 68.617,43.115 68.617,43.509 L68.617,47.988 L69.535,47.988 L69.535,44.638 C69.535,43.866 69.68,42.97 70.689,42.97 C71.473,42.97 71.686,43.464 71.686,44.068 L71.686,47.988 L72.604,47.988" id="Fill-26" fill="#1A1919"></path>
        <path d="M77.117,44.93 C77.117,46.072 77.117,47.35 76.087,47.35 C74.934,47.35 74.934,46.117 74.934,45.266 C74.934,43.755 75.068,42.97 76.054,42.97 C77.072,42.97 77.117,44.18 77.117,44.93 Z M77.117,42.902 L77.085,42.902 C76.772,42.456 76.378,42.22 75.841,42.22 C74.015,42.22 73.97,43.843 73.97,45.256 C73.97,47.742 74.889,48.1 75.796,48.1 C76.39,48.1 76.782,47.842 77.095,47.315 L77.117,47.315 L77.117,47.988 L78.036,47.988 L78.036,39.902 L77.117,39.902 L77.117,42.902 L77.117,42.902 Z" id="Fill-27" fill="#1A1919"></path>
        <path d="M80.411,44.762 C80.422,43.195 80.904,42.915 81.486,42.915 C82.157,42.915 82.618,43.115 82.618,44.762 L80.411,44.762 Z M83.592,45.457 L83.592,44.975 C83.592,43.105 83.187,42.22 81.576,42.22 C79.616,42.22 79.425,43.586 79.425,45.244 C79.425,47.742 80.377,48.1 81.576,48.1 C82.763,48.1 83.536,47.529 83.547,46.275 L82.539,46.275 C82.505,46.844 82.18,47.35 81.554,47.35 C80.836,47.35 80.411,47.036 80.411,45.457 L83.592,45.457 L83.592,45.457 Z" id="Fill-28" fill="#1A1919"></path>
        <path d="M88.655,46.375 C88.655,44.651 85.833,44.673 85.833,43.676 C85.833,43.183 86.213,42.915 86.706,42.915 C87.288,42.915 87.602,43.228 87.59,43.821 L88.61,43.821 C88.688,42.702 87.825,42.22 86.817,42.22 C85.227,42.22 84.869,43.173 84.869,43.765 C84.869,45.457 87.692,45.479 87.692,46.487 C87.692,47.07 87.266,47.35 86.717,47.35 C85.788,47.35 85.776,46.588 85.776,46.263 L84.734,46.263 C84.701,47.562 85.461,48.1 86.684,48.1 C87.803,48.1 88.655,47.618 88.655,46.375" id="Fill-29" fill="#1A1919"></path>
        <path d="M93.782,47.988 L93.782,44.18 C93.782,43.967 93.825,43.407 94.096,43.183 C94.34,42.982 94.442,42.97 94.79,42.97 C95.53,42.97 95.686,43.497 95.686,44.068 L95.686,47.988 L96.604,47.988 L96.604,43.687 C96.604,42.354 95.651,42.22 95.059,42.22 C94.544,42.22 94.028,42.343 93.715,42.948 C93.501,42.433 92.907,42.22 92.393,42.22 C91.733,42.22 91.251,42.433 90.983,43.038 L90.96,43.038 L90.96,42.332 L89.985,42.332 C90.018,42.724 90.041,43.115 90.041,43.509 L90.041,47.988 L90.96,47.988 L90.96,44.18 C90.96,43.967 91.004,43.631 91.172,43.35 C91.307,43.137 91.688,42.97 91.967,42.97 C92.707,42.97 92.862,43.497 92.862,44.068 L92.862,47.988 L93.782,47.988" id="Fill-30" fill="#1A1919"></path>
        <path d="M98.227,47.988 L99.145,47.988 L99.145,42.332 L98.227,42.332 L98.227,47.988 Z M98.17,40.887 L99.201,40.887 L99.201,39.903 L98.17,39.903 L98.17,40.887 Z" id="Fill-31" fill="#1A1919"></path>
        <path d="M104.799,47.988 L104.799,44.068 C104.799,42.948 104.499,42.22 103.288,42.22 C102.559,42.22 102.135,42.422 101.776,43.06 L101.731,43.06 L101.731,42.332 L100.756,42.332 C100.79,42.724 100.811,43.115 100.811,43.509 L100.811,47.988 L101.731,47.988 L101.731,44.638 C101.731,43.866 101.877,42.97 102.885,42.97 C103.669,42.97 103.881,43.464 103.881,44.068 L103.881,47.988 L104.799,47.988" id="Fill-32" fill="#1A1919"></path>
        <path d="M106.424,47.988 L107.342,47.988 L107.342,42.332 L106.424,42.332 L106.424,47.988 Z M106.368,40.887 L107.397,40.887 L107.397,39.903 L106.368,39.903 L106.368,40.887 Z" id="Fill-33" fill="#1A1919"></path>
        <path d="M112.561,46.375 C112.561,44.651 109.737,44.673 109.737,43.676 C109.737,43.183 110.118,42.915 110.61,42.915 C111.194,42.915 111.508,43.228 111.495,43.821 L112.516,43.821 C112.594,42.702 111.731,42.22 110.723,42.22 C109.133,42.22 108.774,43.173 108.774,43.765 C108.774,45.457 111.598,45.479 111.598,46.487 C111.598,47.07 111.17,47.35 110.624,47.35 C109.692,47.35 109.682,46.588 109.682,46.263 L108.639,46.263 C108.608,47.562 109.368,48.1 110.59,48.1 C111.708,48.1 112.561,47.618 112.561,46.375" id="Fill-34" fill="#1A1919"></path>
        <path d="M113.174,42.332 L113.174,43.026 L114.102,43.026 L114.102,47.048 C114.102,47.697 114.495,48.055 115.368,48.055 C115.67,48.055 115.973,47.988 116.276,47.965 L116.276,47.261 C116.075,47.283 115.928,47.305 115.862,47.305 C115.022,47.305 115.022,46.844 115.022,46.487 L115.022,43.026 L116.252,43.026 L116.252,42.332 L115.022,42.332 L115.022,40.832 L114.102,41.245 L114.102,42.332 L113.174,42.332" id="Fill-35" fill="#1A1919"></path>
        <path d="M118.008,44.762 C118.02,43.195 118.501,42.915 119.085,42.915 C119.756,42.915 120.215,43.115 120.215,44.762 L118.008,44.762 Z M121.19,45.457 L121.19,44.975 C121.19,43.105 120.788,42.22 119.174,42.22 C117.213,42.22 117.024,43.586 117.024,45.244 C117.024,47.742 117.975,48.1 119.174,48.1 C120.36,48.1 121.133,47.529 121.145,46.275 L120.137,46.275 C120.102,46.844 119.78,47.35 119.153,47.35 C118.434,47.35 118.008,47.036 118.008,45.457 L121.19,45.457 L121.19,45.457 Z" id="Fill-36" fill="#1A1919"></path>
        <path d="M123.463,42.332 L122.545,42.332 L122.545,47.988 L123.463,47.988 L123.463,44.651 C123.463,43.888 123.721,43.115 124.741,43.115 C124.909,43.115 125.065,43.15 125.233,43.173 L125.233,42.22 C124.336,42.22 123.868,42.32 123.487,43.183 L123.463,43.183 L123.463,42.332" id="Fill-37" fill="#1A1919"></path>
        <path d="M126.211,47.988 L127.131,47.988 L127.131,42.332 L126.211,42.332 L126.211,47.988 Z M126.157,40.887 L127.188,40.887 L127.188,39.903 L126.157,39.903 L126.157,40.887 Z" id="Fill-38" fill="#1A1919"></path>
        <path d="M131.743,46.085 C131.743,47.025 131.129,47.394 130.635,47.394 C129.985,47.394 129.672,46.934 129.672,46.253 L129.672,42.332 L128.754,42.332 L128.754,46.644 C128.754,47.607 129.292,48.1 130.278,48.1 C130.872,48.1 131.409,47.82 131.711,47.305 L131.743,47.305 L131.743,47.988 L132.719,47.988 C132.684,47.595 132.663,47.204 132.663,46.812 L132.663,42.332 L131.743,42.332 L131.743,46.085" id="Fill-39" fill="#1A1919"></path>
        <path d="M138.049,47.988 L138.049,44.18 C138.049,43.967 138.094,43.407 138.364,43.183 C138.61,42.982 138.709,42.97 139.057,42.97 C139.797,42.97 139.954,43.497 139.954,44.068 L139.954,47.988 L140.874,47.988 L140.874,43.687 C140.874,42.354 139.92,42.22 139.327,42.22 C138.811,42.22 138.297,42.343 137.983,42.948 C137.77,42.433 137.176,42.22 136.661,42.22 C136.001,42.22 135.518,42.433 135.251,43.038 L135.227,43.038 L135.227,42.332 L134.252,42.332 C134.288,42.724 134.309,43.115 134.309,43.509 L134.309,47.988 L135.227,47.988 L135.227,44.18 C135.227,43.967 135.272,43.631 135.44,43.35 C135.575,43.137 135.956,42.97 136.237,42.97 C136.973,42.97 137.131,43.497 137.131,44.068 L137.131,47.988 L138.049,47.988" id="Fill-40" fill="#1A1919"></path>
        <polygon id="Fill-41" fill="#F1CC1F" points="46.052 99.99 49.595 99.99 49.595 79.989 46.052 79.989"></polygon>
        <polygon id="Fill-42" fill="#D8232A" points="46.052 79.989 49.595 79.989 49.595 59.919 46.052 59.919"></polygon>
        <polygon id="Fill-43" fill="#1A1919" points="46.052 59.988 49.595 59.988 49.595 39.989 46.052 39.989"></polygon>
        <path d="M35,43.371 C35,42.231 34.171,41.33 33.88,41.075 L33.67,41.123 C33.98,41.502 34.527,42.136 34.527,42.975 C34.527,44.628 32.78,46.064 30.787,46.091 C30.802,46.261 30.801,46.411 30.801,46.539 C30.801,46.775 30.786,47.007 30.758,47.231 C33.02,47.19 35,45.351 35,43.371 Z M31.881,57.054 C30.915,57.054 30.707,56.952 30.452,56.952 C30.288,56.952 30.133,56.968 30.133,57.199 C30.133,57.36 30.314,57.595 30.477,57.718 C30.704,57.492 31.016,57.443 31.519,57.443 C31.754,57.443 32.075,57.489 32.217,57.508 C32.197,57.647 32.169,57.827 32.169,58.08 C32.169,58.213 32.174,58.368 32.174,58.532 C32.174,59.101 32.09,59.404 31.892,59.633 C31.935,59.659 32.049,59.682 32.117,59.682 C32.487,59.682 32.582,59.494 32.582,58.534 C32.582,58.244 32.605,57.975 32.605,57.906 C33.122,58.301 33.648,59.004 33.648,59.512 C33.817,59.426 34.016,59.171 34.016,58.979 C34.016,58.633 33.437,58.117 32.822,57.495 C32.908,57.474 33.136,57.409 33.323,57.409 C33.806,57.409 34.196,57.489 34.423,57.757 C34.513,57.659 34.587,57.365 34.587,57.199 C34.587,56.91 34.421,56.92 34.301,56.92 C33.787,56.92 33.152,57 32.698,57.075 C32.533,56.854 31.48,55.43 31.207,54.671 C31.128,54.643 31.067,54.621 30.938,54.621 C30.685,54.621 30.619,54.798 30.554,55.04 C31.134,55.744 31.692,56.51 31.881,57.054 Z M26.117,55.04 C26.052,54.798 25.987,54.621 25.734,54.621 C25.604,54.621 25.543,54.643 25.466,54.671 C25.191,55.43 24.139,56.854 23.973,57.075 C23.521,57 22.884,56.92 22.371,56.92 C22.25,56.92 22.085,56.91 22.085,57.199 C22.085,57.365 22.158,57.659 22.249,57.757 C22.475,57.489 22.866,57.409 23.348,57.409 C23.537,57.409 23.763,57.474 23.849,57.495 C23.234,58.117 22.655,58.633 22.655,58.979 C22.655,59.171 22.855,59.426 23.023,59.512 C23.023,59.004 23.55,58.301 24.066,57.906 C24.066,57.975 24.09,58.244 24.09,58.534 C24.09,59.494 24.185,59.682 24.555,59.682 C24.622,59.682 24.736,59.659 24.78,59.633 C24.581,59.404 24.498,59.101 24.498,58.532 C24.498,58.368 24.504,58.213 24.504,58.08 C24.504,57.827 24.474,57.647 24.455,57.508 C24.596,57.489 24.918,57.443 25.153,57.443 C25.655,57.443 25.967,57.492 26.195,57.718 C26.358,57.595 26.539,57.36 26.539,57.199 C26.539,56.968 26.384,56.952 26.22,56.952 C25.964,56.952 25.756,57.054 24.79,57.054 C24.98,56.51 25.537,55.744 26.117,55.04 Z M22.145,42.975 C22.145,42.136 22.692,41.502 23.001,41.123 L22.793,41.075 C22.5,41.33 21.672,42.231 21.672,43.371 C21.672,45.365 23.68,47.217 25.963,47.232 C25.939,47.015 25.924,46.786 25.924,46.539 C25.924,46.386 25.931,46.234 25.944,46.093 C23.926,46.093 22.145,44.643 22.145,42.975 Z M28.279,41.439 C28.383,41.2 28.523,40.916 28.523,40.603 C28.523,39.738 27.806,39.326 26.846,39.326 C26.353,39.326 26.104,39.485 26.104,39.645 C26.104,39.805 26.267,40.157 26.329,40.265 C26.506,40.186 26.827,40.093 27.013,40.093 C27.672,40.093 28.164,40.832 28.279,41.439 Z M28.751,40.333 C29.313,40.442 29.695,39.725 29.162,39.597 C29.235,39.834 28.877,40.001 28.877,40.001 C28.877,40.001 28.74,39.684 28.917,39.504 C28.59,39.343 28.508,39.538 28.502,39.739 C28.63,39.911 28.713,40.111 28.751,40.333 Z M30.568,45.246 C30.658,45.252 30.743,45.257 30.833,45.257 C32.413,45.257 33.98,44.235 33.98,42.926 C33.98,42.227 33.666,41.739 33.278,41.198 C33.05,41.236 32.843,41.258 32.68,41.258 C31.964,41.258 31.576,40.874 31.547,40.497 C31.547,40.158 31.823,39.901 32.252,39.901 C32.916,39.901 34.127,40.523 35.348,40.523 C35.228,40.614 35.028,40.71 34.788,40.8 C35.503,41.444 35.981,42.307 36.164,43.23 L38.034,46.224 C38.348,46.724 39.013,47.707 40.013,48.474 C38.804,48.474 38,48.503 36.978,46.885 L36.019,45.35 C35.948,45.549 35.86,45.742 35.758,45.931 L37.665,48.984 C37.982,49.489 38.639,50.465 39.645,51.235 C38.434,51.235 37.633,51.264 36.609,49.645 L34.967,47.017 C34.845,47.147 34.715,47.275 34.578,47.398 L36.895,51.105 C37.214,51.613 37.868,52.583 38.875,53.355 C37.665,53.355 36.862,53.384 35.838,51.764 L33.581,48.151 C33.432,48.246 33.28,48.336 33.124,48.423 L35.878,52.833 C36.196,53.339 36.85,54.31 37.858,55.083 C36.648,55.083 35.845,55.111 34.823,53.492 L31.985,48.95 C31.817,49.015 31.646,49.076 31.473,49.132 L34.681,54.265 C34.993,54.762 35.663,55.749 36.659,56.514 C35.449,56.514 34.646,56.543 33.624,54.924 L30.206,49.453 L30.102,49.471 C30.009,49.767 29.944,50.044 29.944,50.319 C29.944,52.038 31.072,53.555 32.427,54.727 C32.339,54.764 32.189,54.779 32.049,54.779 C31.771,54.779 31.589,54.762 31.462,54.741 C31.777,55.455 32.45,56.375 32.79,56.851 C33.234,56.772 33.879,56.709 34.301,56.709 C34.742,56.709 34.791,56.968 34.791,57.199 C34.791,57.599 34.603,57.922 34.386,58.099 C34.305,57.892 34.14,57.619 33.323,57.619 L33.241,57.622 C33.481,57.888 34.227,58.492 34.227,58.979 C34.227,59.301 33.874,59.783 33.407,59.783 C33.437,59.679 33.432,59.584 33.432,59.512 C33.432,59.119 33.083,58.658 32.789,58.337 C32.796,58.432 32.793,58.422 32.793,58.534 C32.793,59.465 32.709,59.892 32.117,59.892 C31.828,59.892 31.627,59.733 31.559,59.686 C31.942,59.332 31.963,59.054 31.963,58.532 L31.959,58.08 C31.958,57.961 31.96,57.804 31.979,57.688 C31.767,57.659 31.683,57.66 31.519,57.66 C31.519,57.66 30.678,57.593 30.477,58.03 C30.249,57.822 29.919,57.527 29.919,57.199 C29.919,56.984 30.02,56.741 30.452,56.741 C30.616,56.741 31.131,56.842 31.563,56.842 C31.447,56.585 30.931,55.831 30.485,55.282 C30.417,55.494 30.311,55.725 30.077,55.912 C30.044,55.559 29.838,54.448 29.288,53.799 C29.224,54.237 29.137,54.688 29.137,55.638 C29.137,57.952 29.694,59.661 30.875,59.988 C30.722,60.257 30.397,60.497 30.06,60.497 C29.627,60.497 29.392,60.008 29.152,59.546 C29.027,59.887 28.683,60.719 28.335,60.719 C27.99,60.719 27.645,59.887 27.52,59.546 C27.28,60.008 27.044,60.497 26.611,60.497 C26.275,60.497 25.95,60.257 25.797,59.988 C26.977,59.661 27.534,57.952 27.534,55.638 C27.534,54.688 27.448,54.237 27.383,53.799 C26.834,54.448 26.627,55.559 26.595,55.912 C26.36,55.725 26.254,55.494 26.187,55.282 C25.741,55.831 25.225,56.585 25.108,56.842 C25.541,56.842 26.056,56.741 26.22,56.741 C26.652,56.741 26.754,56.984 26.754,57.199 C26.754,57.527 26.422,57.822 26.195,58.03 C25.993,57.593 25.153,57.66 25.153,57.66 C24.99,57.66 24.905,57.659 24.693,57.688 C24.711,57.804 24.715,57.961 24.712,58.08 L24.71,58.532 C24.71,59.054 24.729,59.332 25.113,59.686 C25.045,59.733 24.844,59.892 24.555,59.892 C23.963,59.892 23.878,59.465 23.878,58.534 C23.878,58.422 23.875,58.432 23.883,58.337 C23.588,58.658 23.24,59.119 23.24,59.512 C23.24,59.584 23.235,59.679 23.264,59.783 C22.799,59.783 22.445,59.301 22.445,58.979 C22.445,58.492 23.192,57.888 23.431,57.622 L23.348,57.619 C22.532,57.619 22.366,57.892 22.286,58.099 C22.067,57.922 21.88,57.599 21.88,57.199 C21.88,56.968 21.93,56.709 22.371,56.709 C22.794,56.709 23.438,56.772 23.881,56.851 C24.221,56.375 24.894,55.455 25.209,54.741 C25.083,54.762 24.902,54.779 24.623,54.779 C24.483,54.779 24.332,54.764 24.246,54.727 C25.599,53.555 26.727,52.038 26.727,50.319 C26.727,50.044 26.663,49.767 26.569,49.471 L26.466,49.453 L23.048,54.924 C22.025,56.543 21.223,56.514 20.013,56.514 C21.009,55.749 21.678,54.762 21.991,54.265 L25.199,49.132 C25.025,49.076 24.855,49.015 24.687,48.95 L21.849,53.492 C20.826,55.111 20.023,55.083 18.814,55.083 C19.821,54.31 20.475,53.339 20.793,52.833 L23.549,48.423 C23.391,48.336 23.239,48.246 23.09,48.151 L20.833,51.764 C19.809,53.384 19.007,53.355 17.797,53.355 C18.804,52.583 19.459,51.613 19.776,51.105 L22.093,47.398 C21.956,47.275 21.827,47.147 21.705,47.017 L20.063,49.645 C19.039,51.264 18.237,51.235 17.027,51.235 C18.032,50.465 18.689,49.489 19.007,48.984 L20.913,45.931 C20.812,45.742 20.724,45.549 20.653,45.35 L19.694,46.885 C18.671,48.503 17.868,48.474 16.659,48.474 C17.66,47.707 18.323,46.724 18.638,46.224 L20.508,43.23 C20.69,42.307 21.169,41.444 21.884,40.8 C21.645,40.71 21.444,40.614 21.323,40.523 C22.544,40.523 23.755,39.902 24.419,39.902 C24.849,39.902 25.124,40.158 25.124,40.497 C25.097,40.874 24.708,41.258 23.991,41.258 C23.829,41.258 23.622,41.236 23.393,41.198 C23.006,41.739 22.692,42.227 22.692,42.926 C22.692,44.235 24.258,45.257 25.84,45.257 C25.929,45.257 26.014,45.252 26.104,45.246 C26.417,44.185 27.083,43.489 27.616,42.808 C26.977,42.576 26.266,41.969 26.266,41.695 C26.346,41.648 27.569,42.033 27.696,42.067 C27.722,42.074 27.749,42.076 27.778,42.067 C27.927,42.022 28.051,41.804 28.051,41.782 C27.92,41.761 27.153,41.661 26.628,41.47 C26.23,41.325 26.028,41.06 26.028,40.96 C26.156,40.939 26.642,41.194 27.354,41.194 C27.617,41.194 27.669,41.183 27.931,41.151 C27.747,40.714 27.401,40.343 27.013,40.343 C26.856,40.343 26.514,40.441 26.228,40.584 C26.029,40.275 25.854,39.868 25.854,39.645 C25.854,39.384 26.114,39.076 26.846,39.076 C27.05,39.076 27.241,39.094 27.419,39.127 C27.562,39.153 27.682,39.185 27.812,39.236 C27.801,39.218 27.795,39.179 27.795,39.143 C27.795,39.042 27.887,38.935 28.231,38.935 C28.834,38.935 29.451,39.133 30.209,39.133 C30.405,39.133 30.538,39.127 30.651,39.079 C30.603,39.229 30.39,39.452 30.194,39.632 C30.314,39.797 30.628,40.193 30.628,40.835 C30.628,41.865 29.949,42.715 29.949,43.757 C29.949,44.376 30.425,44.921 30.568,45.246 L30.568,45.246 Z" id="Fill-44" fill="#1A1919"></path>
        <path d="M59.093,16.286 C59.093,15.691 58.848,15.369 58.197,15.369 C57.994,15.369 57.266,15.404 57.266,16.461 L57.266,18.169 C57.266,19.275 57.588,19.555 58.197,19.555 C58.659,19.555 58.967,19.429 59.1,19.331 L59.1,17.819 L58.169,17.819 L58.169,17.259 L59.744,17.259 L59.744,19.716 C59.331,19.94 58.848,20.094 58.197,20.094 C57.126,20.094 56.608,19.541 56.608,18.141 L56.608,16.482 C56.608,15.474 57.126,14.83 58.197,14.83 C59.289,14.83 59.807,15.229 59.765,16.286 L59.093,16.286" id="Fill-45" fill="#1A1919"></path>
        <polyline id="Fill-46" fill="#1A1919" points="60.948 19.989 60.948 14.935 63.552 14.935 63.552 15.495 61.592 15.495 61.592 17.119 63.412 17.119 63.412 17.679 61.592 17.679 61.592 19.429 63.594 19.429 63.594 19.989 60.948 19.989"></polyline>
        <polyline id="Fill-47" fill="#1A1919" points="64.399 19.989 64.399 14.935 66.905 14.935 66.905 15.495 65.043 15.495 65.043 17.119 66.807 17.119 66.807 17.679 65.043 17.679 65.043 19.989 64.399 19.989"></polyline>
        <path d="M67.535,18.141 L67.535,16.482 C67.535,15.474 68.053,14.83 69.124,14.83 C70.195,14.83 70.713,15.474 70.713,16.482 L70.713,18.141 C70.713,19.541 70.195,20.094 69.124,20.094 C68.053,20.094 67.535,19.541 67.535,18.141 Z M68.186,14.34 L68.844,14.34 L68.844,13.612 L68.186,13.612 L68.186,14.34 Z M70.055,18.169 L70.055,16.461 C70.055,15.404 69.327,15.369 69.124,15.369 C68.921,15.369 68.193,15.404 68.193,16.461 L68.193,18.169 C68.193,19.275 68.515,19.555 69.124,19.555 C69.733,19.555 70.055,19.275 70.055,18.169 Z M69.418,14.34 L70.076,14.34 L70.076,13.612 L69.418,13.612 L69.418,14.34 Z" id="Fill-48" fill="#1A1919"></path>
        <path d="M72.463,17.665 L72.463,19.989 L71.819,19.989 L71.819,14.935 L73.562,14.935 C74.458,14.935 74.773,15.565 74.773,16.195 C74.773,16.79 74.444,17.245 73.849,17.35 L73.849,17.364 C74.43,17.455 74.64,17.651 74.675,18.666 C74.682,18.883 74.752,19.674 74.85,19.989 L74.178,19.989 C73.996,19.639 74.038,18.981 73.982,18.309 C73.933,17.693 73.436,17.665 73.219,17.665 L72.463,17.665 Z M72.463,17.105 L73.429,17.105 C73.891,17.105 74.115,16.706 74.115,16.265 C74.115,15.901 73.933,15.495 73.436,15.495 L72.463,15.495 L72.463,17.105 L72.463,17.105 Z" id="Fill-49" fill="#1A1919"></path>
        <path d="M75.739,14.935 L77.293,14.935 C77.937,14.935 78.399,15.166 78.651,15.705 C78.854,16.132 78.875,17.14 78.875,17.301 C78.875,18.379 78.777,19.002 78.567,19.338 C78.294,19.772 77.783,19.989 76.901,19.989 L75.739,19.989 L75.739,14.935 Z M76.383,19.429 L76.992,19.429 C77.888,19.429 78.217,19.093 78.217,17.917 L78.217,16.895 C78.217,15.873 77.902,15.495 77.23,15.495 L76.383,15.495 L76.383,19.429 L76.383,19.429 Z" id="Fill-50" fill="#1A1919"></path>
        <polyline id="Fill-51" fill="#1A1919" points="80.002 19.989 80.002 14.935 82.606 14.935 82.606 15.495 80.646 15.495 80.646 17.119 82.466 17.119 82.466 17.679 80.646 17.679 80.646 19.429 82.648 19.429 82.648 19.989 80.002 19.989"></polyline>
        <path d="M84.132,17.665 L84.132,19.989 L83.488,19.989 L83.488,14.935 L85.231,14.935 C86.126,14.935 86.442,15.565 86.442,16.195 C86.442,16.79 86.113,17.245 85.518,17.35 L85.518,17.364 C86.098,17.455 86.309,17.651 86.343,18.666 C86.351,18.883 86.42,19.674 86.519,19.989 L85.847,19.989 C85.664,19.639 85.707,18.981 85.651,18.309 C85.602,17.693 85.104,17.665 84.888,17.665 L84.132,17.665 Z M84.132,17.105 L85.098,17.105 C85.56,17.105 85.784,16.706 85.784,16.265 C85.784,15.901 85.602,15.495 85.104,15.495 L84.132,15.495 L84.132,17.105 L84.132,17.105 Z" id="Fill-52" fill="#1A1919"></path>
        <polyline id="Fill-53" fill="#1A1919" points="90.229 14.935 90.229 15.495 88.899 15.495 88.899 19.989 88.255 19.989 88.255 15.495 86.924 15.495 86.924 14.935 90.229 14.935"></polyline>
        <polyline id="Fill-54" fill="#1A1919" points="94.205 19.989 93.435 19.989 91.972 14.935 92.671 14.935 93.827 19.38 93.84 19.38 95.023 14.935 95.681 14.935 94.205 19.989"></polyline>
        <path d="M96.319,18.141 L96.319,16.482 C96.319,15.474 96.836,14.83 97.908,14.83 C98.979,14.83 99.497,15.474 99.497,16.482 L99.497,18.141 C99.497,19.541 98.979,20.094 97.908,20.094 C96.836,20.094 96.319,19.541 96.319,18.141 Z M98.838,18.169 L98.838,16.461 C98.838,15.404 98.111,15.369 97.908,15.369 C97.705,15.369 96.977,15.404 96.977,16.461 L96.977,18.169 C96.977,19.275 97.298,19.555 97.908,19.555 C98.516,19.555 98.838,19.275 98.838,18.169 L98.838,18.169 Z" id="Fill-55" fill="#1A1919"></path>
        <polyline id="Fill-56" fill="#1A1919" points="101.226 19.989 100.624 19.989 100.624 14.935 101.667 14.935 102.94 19.177 102.955 19.177 104.243 14.935 105.306 14.935 105.306 19.989 104.663 19.989 104.663 15.495 104.648 15.495 103.235 19.989 102.626 19.989 101.24 15.495 101.226 15.495 101.226 19.989"></polyline>
    </g>
</svg>