<?xml version="1.0" encoding="UTF-8"?>
<svg width="191px" height="75px" viewBox="0 0 191 75" version="1.1" xmlns="http://www.w3.org/2000/svg" xmlns:xlink="http://www.w3.org/1999/xlink">
    <title>LOGO/Scads</title>
    <defs>
        <polygon id="path-1" points="0 0 6.93633294 0 6.93633294 11 0 11"></polygon>
    </defs>
    <g id="LOGO/Scads" stroke="none" stroke-width="1" fill="none" fill-rule="evenodd">
        <polygon id="Fill-1" fill="#1275AB" points="135 0 135 6.00719036 184.993475 6.00719036 184.993475 56 191 56 191 0"></polygon>
        <polygon id="Fill-2" fill="#1275AB" points="172.990548 18.0081474 172.990548 56 179 56 179 12 135 12 135 18.0081474"></polygon>
        <polygon id="Fill-3" fill="#1275AB" points="162 55 168 55 168 23 162 23"></polygon>
        <g id="Group-22" transform="translate(0, 24)">
            <path d="M143.608881,22.9824848 L141.130608,31.9454076 L135.703325,31.9454076 L144.933173,0.317554288 L151.642044,0.317554288 L161,31.9454076 L155.3165,31.9454076 L152.710118,22.9824848 L143.608881,22.9824848 Z M151.855558,18.6182149 L149.591302,10.8286902 C149.036164,8.90467321 148.56593,6.74577875 148.137897,4.91571269 L148.052491,4.91571269 C147.625463,6.74577875 147.155229,8.9516487 146.684995,10.8286902 L144.463441,18.6182149 L151.855558,18.6182149 Z" id="Fill-4" fill="#1275AB"></path>
            <path d="M18.7686628,1.1244448 L18.1748418,6.29273727 C16.0748656,5.3937748 13.9120911,4.94429357 11.6905373,4.94429357 C10.3496673,4.94429357 9.23889047,5.2444422 8.35619713,5.84276156 C7.23034865,6.5928859 6.66717321,7.74699943 6.66717321,9.30411319 C6.66717321,10.7123888 7.86888208,11.9263343 10.2748117,12.9454551 C14.140677,14.5332266 16.3933787,15.5370185 17.0334193,15.9563366 C19.4373394,17.6054234 20.6410578,19.9413412 20.6410578,22.968046 C20.6410578,26.2049043 19.4534158,28.6471351 17.0791365,30.2947385 C14.9781555,31.7331773 12.1768476,32.4521495 8.67621742,32.4521495 C6.57523646,32.4521495 3.85079366,32.0486548 0.502386649,31.239193 L1.09570528,25.5749383 C3.50113255,26.86355 5.90605744,27.5083504 8.31098233,27.5083504 C9.7116363,27.5083504 10.9595647,27.1938619 12.0557724,26.5648848 C13.3343464,25.7855862 13.9733822,24.7511366 13.9733822,23.4635138 C13.9733822,21.8752478 12.7701662,20.5574618 10.3662461,19.5086723 C6.19492976,17.6815731 3.94222803,16.6614633 3.60763852,16.4518043 C1.20170886,14.8328807 0,12.5409714 0,9.57409862 C0,6.30806611 1.15599168,3.83666105 3.46998458,2.1579055 C5.44888559,0.719466661 8.00653602,0 11.1424335,0 C13.9427367,0.000494478805 16.4853155,0.375309413 18.7686628,1.1244448" id="Fill-6" fill="#7B7B7A"></path>
            <path d="M41.9213022,8.99021805 L41.372696,13.7535324 C40.1242652,13.1853762 38.7396876,12.8995675 37.2169536,12.8995675 C35.329487,12.8995675 33.8223271,13.574531 32.6959762,14.9224803 C31.5701277,16.270924 31.0064499,18.0396747 31.0064499,20.2272489 C31.0064499,22.4736661 31.5234058,24.271591 32.559327,25.6205292 C33.6851755,27.0584736 35.2837698,27.7774458 37.3536028,27.7774458 C38.815548,27.7774458 40.3824919,27.4184541 42.057449,26.6989875 L42.3322545,31.6877841 C40.6572974,32.1966028 38.6166028,32.4522484 36.2126827,32.4522484 C32.4688974,32.4522484 29.5756527,31.2996183 27.5359629,28.9908967 C25.5872051,26.803817 24.6135798,23.8834252 24.6135798,20.2267544 C24.6135798,16.7505684 25.5872051,13.9191828 27.5359629,11.7316085 C29.6062983,9.39470171 32.4221755,8.22525933 35.9840968,8.22525933 C38.2066553,8.22525933 40.1860587,8.4804104 41.9213022,8.99021805" id="Fill-8" fill="#7B7B7A"></path>
            <path d="M49.501111,15.1478637 L49.3177399,9.97907676 C51.9050311,8.80963439 54.6299763,8.22565492 57.4925754,8.22565492 C61.0539944,8.22565492 63.6347546,8.99704185 65.2323442,10.5408047 C66.8309385,12.084073 67.6297332,14.5628953 67.6297332,17.9787549 L67.6297332,20.9456277 C67.6297332,22.5047194 67.6593741,24.4371425 67.7206652,26.7438862 C67.7513108,28.3623153 67.8422428,30.0855739 67.9949683,31.9126731 L62.6068715,31.9126731 C62.5455804,31.6135134 62.4546484,30.4593999 62.3330708,28.4518159 L62.2416364,28.4518159 C61.5413094,29.6810903 60.5209622,30.6537301 59.1821017,31.3731967 C57.8422366,32.0921689 56.442085,32.451655 54.9806422,32.451655 C52.7580837,32.451655 50.8711194,31.8533356 49.3177399,30.6537301 C47.613142,29.3661073 46.7610942,27.6730118 46.7610942,25.5744438 C46.7610942,22.4587328 48.1009594,20.2563242 50.779685,18.967218 C52.6360037,18.0682555 55.2700169,17.6197633 58.6792127,17.6197633 L62.0587677,17.6197633 C62.0587677,15.7916751 61.6392748,14.5030633 60.8028011,13.7534335 C59.9653225,13.0057815 58.6174191,12.6299776 56.7610942,12.6299776 C54.1733069,12.6304721 51.7538128,13.4700971 49.501111,15.1478637 M52.6063629,25.2159467 C52.6063629,27.1033722 53.9000085,28.0473323 56.4872998,28.0473323 C58.9228702,28.0473323 60.5978273,26.9387108 61.5111662,24.7219623 C61.875899,23.7938256 62.0592701,22.6238888 62.0592701,21.2161075 L59.4106877,21.2161075 C54.8741362,21.2156131 52.6063629,22.548728 52.6063629,25.2159467" id="Fill-10" fill="#7B7B7A"></path>
            <path d="M74.2974088,31.9129203 L74.2974088,0.539229137 L83.0198458,0.539229137 C95.2876254,0.539229137 101.422269,5.76883698 101.422269,16.2270637 C101.422269,26.6843015 95.2876254,31.9129203 83.0198458,31.9129203 L74.2974088,31.9129203 Z M80.6902789,5.48401718 L80.6902789,26.9691213 L84.2522003,26.9691213 C87.083149,26.9691213 89.5026431,26.0251612 91.5136969,24.1377356 C93.6749643,22.1291627 94.7555979,19.4930962 94.7555979,16.2270637 C94.7555979,12.9600422 93.6749643,10.3081524 91.5136969,8.27040525 C89.5026431,6.41314286 87.0826467,5.48401718 84.2522003,5.48401718 L80.6902789,5.48401718 Z" id="Fill-12" fill="#7B7B7A"></path>
            <path d="M124.300404,1.1244448 L123.707085,6.29273727 C121.606105,5.3937748 119.443832,4.94429357 117.222279,4.94429357 C115.881409,4.94429357 114.771637,5.2444422 113.888943,5.84276156 C112.761588,6.5928859 112.198915,7.74699943 112.198915,9.30411319 C112.198915,10.7123888 113.401628,11.9263343 115.806553,12.9454551 C119.672418,14.5332266 121.925622,15.5370185 122.565161,15.9563366 C124.970086,17.6054234 126.172799,19.9413412 126.172799,22.968046 C126.172799,26.2049043 124.985157,28.6471351 122.610878,30.2947385 C120.509897,31.7331773 117.708589,32.4521495 114.207959,32.4521495 C112.107983,32.4521495 109.383037,32.0486548 106.034128,31.239193 L106.627447,25.5749383 C109.032874,26.86355 111.437799,27.5083504 113.843728,27.5083504 C115.243378,27.5083504 116.491306,27.1938619 117.588016,26.5648848 C118.86659,25.7855862 119.505626,24.7511366 119.505626,23.4635138 C119.505626,21.8752478 118.302912,20.5574618 115.897987,19.5086723 C111.727173,17.6815731 109.473969,16.6614633 109.13938,16.4518043 C106.734455,14.8338697 105.532244,12.5414659 105.532244,9.5745931 C105.532244,6.30856059 106.688738,3.83715553 109.002731,2.15839998 C110.981129,0.71996114 113.53878,0.000988468935 116.674677,0.000988468935 C119.474478,0.000494478746 122.017057,0.375309413 124.300404,1.1244448" id="Fill-14" fill="#7B7B7A"></path>
            <path d="M127.705732,29.4312301 C127.705732,27.7237948 128.912464,26.4989708 130.571847,26.4989708 C132.268909,26.4989708 133.438466,27.6867089 133.438466,29.4312301 C133.438466,31.1015795 132.307091,32.3639839 130.571847,32.3639839 C128.874785,32.3639839 127.705732,31.1015795 127.705732,29.4312301" id="Fill-16" fill="#7B7B7A"></path>
            <path d="M0.601758728,50.9995055 L0.601758728,40.2119559 L3.60100702,40.2119559 C7.81954771,40.2119559 9.92906925,42.0093864 9.92906925,45.6052362 C9.92906925,49.2020751 7.81954771,50.9995055 3.60100702,50.9995055 L0.601758728,50.9995055 Z M2.8002027,41.9124685 L2.8002027,49.2994874 L4.02502135,49.2994874 C4.99914906,49.2994874 5.83110135,48.9756038 6.52138061,48.3253641 C7.26441046,47.6355662 7.63667897,46.7291866 7.63667897,45.6052362 C7.63667897,44.4827694 7.26441046,43.5709504 6.52138061,42.8697795 C5.83160374,42.2309129 4.99914906,41.9124685 4.02502135,41.9124685 L2.8002027,41.9124685 Z" id="Fill-18" fill="#1275AB"></path>
            <path d="M11.7500701,50.9995055 L11.7500701,40.2119559 L14.1213351,40.2119559 C15.8068423,40.2119559 16.9633364,40.3251916 17.5913197,40.5526518 C18.7216897,40.9531796 19.2868746,41.8135728 19.2868746,43.1338312 C19.2868746,43.7820929 19.083408,44.3383815 18.6749677,44.8017082 C18.2665274,45.2660238 17.7169164,45.5439209 17.0261347,45.6363884 L17.0261347,45.6675406 C17.5079235,45.7095713 17.8947612,46.0794414 18.1876526,46.7806124 L19.9465083,51 L17.4978758,51 L16.1781061,47.6301269 C16.0108113,47.208831 15.8329664,46.9254946 15.644069,46.7806124 C15.4250285,46.6050724 15.0949604,46.5180441 14.6558745,46.5180441 L13.9485141,46.5180441 L13.9485141,50.9995055 L11.7500701,50.9995055 Z M13.9480117,41.9124685 L13.9480117,44.818026 L14.6709461,44.818026 C16.2193018,44.818026 16.993982,44.3181079 16.993982,43.3187662 C16.993982,42.742204 16.7427886,42.344643 16.2409044,42.1285558 C15.9058125,41.984168 15.3823256,41.9124685 14.6709461,41.9124685 L13.9480117,41.9124685 Z" id="Fill-20" fill="#1275AB"></path>
        </g>
        <polygon id="Fill-23" fill="#1275AB" points="22 64 22 75 28 75 28 73.2665811 24.0281298 73.2665811 24.0281298 70.1768804 27.6369397 70.1768804 27.6369397 68.4449741 24.0281298 68.4449741 24.0281298 65.7344273 27.9707883 65.7344273 27.9707883 64"></polygon>
        <g id="Group-29" transform="translate(30, 64)">
            <g id="Group-26">
                <mask id="mask-2" fill="white">
                    <use xlink:href="#path-1"></use>
                </mask>
                <g id="Clip-25"></g>
                <path d="M6.30740864,0.380226124 L6.10758648,2.1326721 C5.40108994,1.82800486 4.67544582,1.6754275 3.92918124,1.6754275 C3.4784767,1.6754275 3.10485345,1.77682076 2.80880243,1.97960728 C2.43026954,2.23406536 2.24026665,2.62550183 2.24026665,3.15245429 C2.24026665,3.63017253 2.64482061,4.04208264 3.4529466,4.38720969 C4.7525271,4.92537391 5.50959288,5.26562629 5.72365299,5.40845429 C6.53177898,5.96611721 6.93633294,6.75873951 6.93633294,7.78437131 C6.93633294,8.88166085 6.53717958,9.70938082 5.73985478,10.2680187 C5.03335825,10.7564612 4.0926721,11.000195 2.91583248,11.000195 C2.21031787,11.000195 1.2941799,10.8627291 0.169382422,10.5882849 L0.369204585,8.66815005 C1.17683961,9.10492101 1.98496561,9.32330649 2.7930916,9.32330649 C3.26392564,9.32330649 3.68369946,9.21655108 4.05192212,9.00352775 C4.4805333,8.74029525 4.69655725,8.38931859 4.69655725,7.95254763 C4.69655725,7.41389595 4.29200329,6.96835057 3.4838773,6.61201176 C2.08217639,5.99195299 1.3251106,5.64682594 1.21267995,5.57614314 C0.40455396,5.02822957 0,4.2502313 0,3.24507314 C0,2.13754678 0.38933409,1.29910253 1.16702034,0.73071532 C1.83129402,0.2437352 2.69097118,0 3.74457894,0 C4.68477413,-0.000486061441 5.53954166,0.125768044 6.30740864,0.380226124" id="Fill-24" fill="#1275AB" mask="url(#mask-2)"></path>
            </g>
            <path d="M8.88477086,10.8164197 L8.88477086,0.181826816 L11.8158232,0.181826816 C15.9379531,0.181826816 18,1.9537715 18,5.49863579 C18,9.04447503 15.9379531,10.8164197 11.8158232,10.8164197 L8.88477086,10.8164197 Z M11.0327364,1.85822785 L11.0327364,9.14050614 L12.2297055,9.14050614 C13.1811928,9.14050614 13.9947194,8.82121487 14.6697943,8.18019499 C15.3959294,7.50017771 15.7597334,6.60664962 15.7597334,5.49863579 C15.7597334,4.39208437 15.3959294,3.49319414 14.6697943,2.8019651 C13.9947194,2.17215698 13.1811928,1.85822785 12.2297055,1.85822785 L11.0327364,1.85822785 Z" id="Fill-27" fill="#1275AB"></path>
        </g>
        <polygon id="Fill-30" fill="#1275AB" points="50 64 50 75 56 75 56 73.2665811 52.0281298 73.2665811 52.0281298 70.1768804 55.6369397 70.1768804 55.6369397 68.4449741 52.0281298 68.4449741 52.0281298 65.7344273 55.9707883 65.7344273 55.9707883 64"></polygon>
        <polygon id="Fill-31" fill="#1275AB" points="65.898495 64 65.898495 72.2269331 61.7090301 64 59 64 59 75 61.1010033 75 61.1010033 66.7745795 65.3060201 75 68 75 68 64"></polygon>
        <polygon id="Fill-32" fill="#56AF31" points="74 64 74 75 80 75 80 73.2665811 76.0426625 73.2665811 76.0426625 64"></polygon>
        <polygon id="Fill-33" fill="#56AF31" points="82 64 82 75 88 75 88 73.2665811 84.0289071 73.2665811 84.0289071 70.1768804 87.6378111 70.1768804 87.6378111 68.4449741 84.0289071 68.4449741 84.0289071 65.7344273 87.9731025 65.7344273 87.9731025 64"></polygon>
        <polygon id="Fill-34" fill="#56AF31" points="90 75 92 75 92 64 90 64"></polygon>
        <path d="M95,75 L95,64 L97.6476138,64 C100.549843,64 102,65.1087734 102,67.3258159 C102,68.5334158 101.611377,69.4369729 100.834131,70.0354785 C100.145426,70.5618812 99.193491,70.8245783 97.9768905,70.8245783 L97.0948311,70.8245783 L97.0948311,75 L95,75 Z M97.0943525,65.7340026 L97.0943525,69.0905757 L97.8266101,69.0905757 C99.1532887,69.0905757 99.8156707,68.5435002 99.8156707,67.451366 C99.8156707,66.306289 99.1532887,65.7340026 97.8266101,65.7340026 L97.0943525,65.7340026 Z" id="Fill-35" fill="#56AF31"></path>
        <polygon id="Fill-37" fill="#56AF31" points="102.214201 64 102.214201 65.7344273 107.422187 65.7344273 102 73.2030527 102 75 110 75 110 73.2665811 104.413328 73.2665811 109.884702 65.7969473 109.884702 64"></polygon>
        <polygon id="Fill-38" fill="#56AF31" points="112 75 114 75 114 64 112 64"></polygon>
        <path d="M125.655861,64.4425932 L125.508223,66.2402623 C124.63185,65.8644481 123.646193,65.6762972 122.552304,65.6762972 C121.248253,65.6762972 120.219513,66.0467497 119.465034,66.7886294 C118.752588,67.489077 118.397415,68.4030221 118.397415,69.5304648 C118.397415,70.6384101 118.747859,71.5469934 119.448747,72.2571897 C120.149109,72.9678734 121.096411,73.3237028 122.289602,73.3237028 C122.858089,73.3237028 123.362476,73.2730093 123.800137,73.1721097 L123.800137,70.3990783 L121.369096,70.3990783 L121.369096,68.7232685 L126,68.7232685 L126,74.4516329 C124.544108,74.8167235 123.307834,75 122.289602,75 C120.362949,75 118.851363,74.5632561 117.756948,73.6897682 C116.585299,72.7655869 116,71.4300084 116,69.6830327 C116,67.8751274 116.557453,66.476182 117.675511,65.4852218 C118.791993,64.4942615 120.329848,64 122.289602,64 C123.470709,64.0004874 124.593496,64.1472061 125.655861,64.4425932" id="Fill-39" fill="#56AF31"></path>
    </g>
</svg>