<?xml version="1.0" encoding="UTF-8"?>
<svg width="17px" height="11px" viewBox="0 0 17 11" version="1.1" xmlns="http://www.w3.org/2000/svg" xmlns:xlink="http://www.w3.org/1999/xlink">
    <title>Icon/"</title>
    <g id="Icon/&quot;" stroke="none" stroke-width="1" fill="none" fill-rule="evenodd">
        <path d="M0.733714286,10.848 C0.445714286,10.848 0.237714286,10.76 0.109714286,10.584 C-0.0182857143,10.408 -0.0342857143,10.192 0.0617142857,9.936 L3.32571429,0.672 C3.45371429,0.224 3.77371429,0 4.28571429,0 L7.83771429,0 C8.12571429,0 8.33371429,0.088 8.46171429,0.264 C8.58971429,0.44 8.62171429,0.656 8.55771429,0.912 L6.44571429,10.128 C6.34971429,10.608 6.06171429,10.848 5.58171429,10.848 L0.733714286,10.848 Z M9.22971429,10.848 C8.94171429,10.848 8.73371429,10.76 8.60571429,10.584 C8.47771429,10.408 8.46171429,10.192 8.55771429,9.936 L11.7737143,0.672 C11.9017143,0.224 12.2217143,0 12.7337143,0 L16.2377143,0 C16.5257143,0 16.7337143,0.08 16.8617143,0.24 C16.9897143,0.4 17.0217143,0.624 16.9577143,0.912 L14.9417143,10.128 C14.8457143,10.608 14.5577143,10.848 14.0777143,10.848 L9.22971429,10.848 Z" id="Shape" fill="#004B6F" fill-rule="nonzero"></path>
    </g>
</svg>