<?xml version="1.0" encoding="UTF-8"?>
<svg width="32px" height="32px" viewBox="0 0 32 32" version="1.1" xmlns="http://www.w3.org/2000/svg" xmlns:xlink="http://www.w3.org/1999/xlink">
    <title>Icon/back up</title>
    <g id="Icon/back-up" stroke="none" stroke-width="1" fill="none" fill-rule="evenodd">
        <path d="M16,30 C8.268,30 2,23.732 2,16 C2,8.269 8.268,2 16,2 C23.732,2 30,8.269 30,16 C30,23.732 23.732,30 16,30 L16,30 Z M16,0 C7.163,0 0,7.164 0,16 C0,24.837 7.163,32 16,32 C24.837,32 32,24.837 32,16 C32,7.164 24.837,0 16,0 L16,0 Z M16.879,9.465 C16.639,9.225 16.311,9.15 16,9.205 C15.689,9.15 15.361,9.225 15.121,9.465 L9.465,15.121 C9.074,15.512 9.074,16.145 9.465,16.535 C9.854,16.926 10.488,16.926 10.879,16.535 L15,12.414 L15,23 C15,23.553 15.447,24 16,24 C16.553,24 17,23.553 17,23 L17,12.414 L21.121,16.535 C21.512,16.926 22.145,16.926 22.535,16.535 C22.926,16.145 22.926,15.512 22.535,15.121 L16.879,9.465 Z" id="Fill-1" fill="#71BD56"></path>
    </g>
</svg>