<?xml version="1.0" encoding="UTF-8"?>
<svg width="19px" height="21px" viewBox="0 0 19 21" version="1.1" xmlns="http://www.w3.org/2000/svg" xmlns:xlink="http://www.w3.org/1999/xlink">
    <title>Icon/interner Link white</title>
    <g id="Icon/interner-Link-white" stroke="none" stroke-width="1" fill="none" fill-rule="evenodd">
        <g id="Icon/interner-Link" fill="#FFFFFF" fill-rule="nonzero">
            <g id="Icon/link">
                <path d="M5.13476793,12.3527854 C5.13476793,12.5035706 5.19162142,12.6340577 5.30532841,12.7442469 C5.41903539,12.8544361 5.55368839,12.9095306 5.70928742,12.9095306 C5.79307151,12.9095306 5.86787874,12.8950321 5.9337091,12.8660349 C5.99953945,12.8370378 6.06237752,12.793542 6.1222233,12.7355477 L13.0882721,5.95021493 C13.1959945,5.83422634 13.2498557,5.70083945 13.2498557,5.55005428 C13.2498557,5.3992691 13.1930022,5.26878193 13.0792952,5.15859277 C12.9655883,5.0484036 12.8309353,4.99330902 12.6753362,4.99330902 C12.5197372,4.99330902 12.3820919,5.05130332 12.2624003,5.16729191 L5.31430527,11.9526247 C5.19461371,12.0686133 5.13476793,12.2020002 5.13476793,12.3527854 Z M8.5459774,11.5524641 C8.64173065,11.970023 8.63574607,12.3701837 8.52802366,12.752946 C8.42030126,13.1357084 8.20485645,13.4836742 7.88168924,13.7968434 L5.56565755,15.9716296 C5.062953,16.4587817 4.45252604,16.7023577 3.73437668,16.7023577 C3.01622732,16.7023577 2.40580036,16.4587817 1.90309581,15.9716296 C1.40039125,15.4844775 1.14903898,14.8929356 1.14903898,14.197004 C1.14903898,13.5010725 1.40039125,12.9153301 1.90309581,12.4397768 L4.16526629,10.1606009 C4.66797085,9.67344884 5.2783978,9.42987279 5.99654717,9.42987279 C6.20002282,9.42987279 6.42743678,9.46466936 6.67878906,9.53426252 L7.57647576,8.66434806 C7.07377121,8.43237087 6.54712834,8.31638227 5.99654717,8.31638227 C4.96719975,8.31638227 4.08746678,8.67014749 3.35734826,9.37767792 L1.09517778,11.6394555 C0.365059259,12.346986 0,13.1995021 0,14.197004 C0,15.194506 0.365059259,16.0470221 1.09517778,16.7545526 C1.82529629,17.462083 2.70502926,17.8158482 3.73437668,17.8158482 C4.7637241,17.8158482 5.64345706,17.462083 6.37357558,16.7545526 L8.68960727,14.5797664 C9.24018845,14.0462189 9.58130939,13.4256799 9.71297011,12.7181495 C9.84463083,12.010619 9.76084673,11.3320857 9.46161783,10.6825496 L8.5459774,11.5524641 Z M17.2894459,1.06129565 C16.9303712,0.71332986 16.5234199,0.449455806 16.068592,0.269673484 C15.613764,0.0898911612 15.1409824,0 14.650247,0 C13.6208995,0.0115988595 12.7411666,0.365364075 12.0110481,1.06129565 L9.69501637,3.2360818 C9.12049689,3.7812282 8.77039907,4.43946348 8.64472293,5.21078764 C8.5190468,5.98211179 8.62976149,6.7041408 8.97686701,7.37687465 L9.87455372,6.50696019 C9.73092384,6.08940125 9.7159624,5.65444401 9.82966938,5.20208849 C9.94337636,4.74973297 10.167798,4.35537175 10.5029344,4.01900482 L12.8189661,1.84421866 C12.9386577,1.72823007 13.0703184,1.62384033 13.2139482,1.53104946 C13.3575781,1.43825858 13.5071926,1.35996628 13.6627916,1.29617255 C13.8183906,1.23237882 13.9799742,1.18598339 14.1475424,1.15698624 C14.3151106,1.12798909 14.4826788,1.11349051 14.650247,1.11349051 C15.3683963,1.11349051 15.9788233,1.35706656 16.4815278,1.84421866 C16.9842324,2.33137076 17.2355847,2.9229126 17.2355847,3.61884417 C17.2355847,4.31477574 16.9842324,4.90051814 16.4815278,5.37607138 L14.1654961,7.63784899 C13.926113,7.86982618 13.6478302,8.0496085 13.3306475,8.17719596 C13.0134649,8.30478341 12.6813208,8.36857714 12.3342153,8.36857714 C12.0589247,8.36857714 11.8913565,8.36277771 11.8315107,8.35117885 L10.9158703,9.2384916 C11.0714693,9.2964859 11.2300606,9.34288134 11.3916442,9.37767792 C11.5532278,9.4124745 11.7088269,9.43857193 11.8584413,9.45597022 C12.0080558,9.47336851 12.1666471,9.48206765 12.3342153,9.48206765 C12.8249507,9.48206765 13.2977323,9.39217649 13.7525603,9.21239417 C14.2073882,9.03261185 14.6143395,8.76873779 14.9734142,8.42077201 L17.2894459,6.17639269 C18.1033485,5.38767024 18.4624232,4.43076433 18.3666699,3.30567496 C18.2828858,2.42416164 17.9238111,1.6760352 17.2894459,1.06129565 Z" id="Shape"></path>
            </g>
            <g id="AI" transform="translate(5.5673, 10.64)">
                <path d="M7.36715407,9.93249003 L6.86437199,8.07860565 L3.54740689,8.07860565 L3.03065864,9.93249003 L0,9.93249003 L3.33093127,0 L7.01101677,0 L10.3838465,9.93249003 L7.36715407,9.93249003 Z M6.29175907,5.8864212 L5.85182475,4.26258087 C5.74940618,3.90172746 5.62487451,3.43487337 5.47822973,2.86201859 C5.33158496,2.2891638 5.23498563,1.87869305 5.18843173,1.63060633 C5.14653322,1.86065038 5.06390006,2.23954646 4.94053223,2.76729457 C4.81716441,3.29504267 4.54366027,4.33475155 4.12001981,5.8864212 L6.29175907,5.8864212 Z" id="Shape"></path>
                <polygon id="Path" points="11.4871739 9.93249003 11.4871739 0.0405960083 14.2594584 0.0405960083 14.2594584 9.93249003"></polygon>
            </g>
        </g>
    </g>
</svg>