<?xml version="1.0" encoding="UTF-8"?>
<svg width="18px" height="18px" viewBox="0 0 18 18" version="1.1" xmlns="http://www.w3.org/2000/svg" xmlns:xlink="http://www.w3.org/1999/xlink">
    <title>Icon/link white</title>
    <g id="Icon/link-white" stroke="none" stroke-width="1" fill="none" fill-rule="evenodd">
        <g id="Icon/link" fill="#FFFFFF" fill-rule="nonzero">
            <path d="M5.02656856,12.4804688 C5.02656856,12.6328125 5.08222404,12.7646484 5.193535,12.8759766 C5.30484596,12.9873047 5.43666157,13.0429688 5.58898183,13.0429688 C5.67100043,13.0429688 5.74423132,13.0283203 5.80867451,12.9990234 C5.8731177,12.9697266 5.93463165,12.9257812 5.99321636,12.8671875 L12.8124772,6.01171875 C12.9179297,5.89453125 12.9706559,5.75976562 12.9706559,5.60742188 C12.9706559,5.45507812 12.9150005,5.32324219 12.8036895,5.21191406 C12.6923785,5.10058594 12.5605629,5.04492188 12.4082427,5.04492188 C12.2559224,5.04492188 12.1211776,5.10351562 12.0040081,5.22070312 L5.20232271,12.0761719 C5.08515328,12.1933594 5.02656856,12.328125 5.02656856,12.4804688 Z M8.36589733,11.671875 C8.45963287,12.09375 8.4537744,12.4980469 8.34832191,12.8847656 C8.24286943,13.2714844 8.03196445,13.6230469 7.71560699,13.9394531 L5.44837851,16.1367188 C4.95626691,16.6289062 4.35870281,16.875 3.65568623,16.875 C2.95266965,16.875 2.35510555,16.6289062 1.86299394,16.1367188 C1.37088234,15.6445312 1.12482653,15.046875 1.12482653,14.34375 C1.12482653,13.640625 1.37088234,13.0488281 1.86299394,12.5683594 L4.07749618,10.265625 C4.56960778,9.7734375 5.16717188,9.52734375 5.87018846,9.52734375 C6.06937649,9.52734375 6.29199841,9.5625 6.53805422,9.6328125 L7.41682494,8.75390625 C6.92471334,8.51953125 6.40916784,8.40234375 5.87018846,8.40234375 C4.86253136,8.40234375 4.00133605,8.75976562 3.28660252,9.47460938 L1.07210029,11.7597656 C0.357366763,12.4746094 0,13.3359375 0,14.34375 C0,15.3515625 0.357366763,16.2128906 1.07210029,16.9277344 C1.78683381,17.6425781 2.64802913,18 3.65568623,18 C4.66334333,18 5.52453864,17.6425781 6.23927217,16.9277344 L8.50650065,14.7304688 C9.04548003,14.1914062 9.3794129,13.5644531 9.50829928,12.8496094 C9.63718565,12.1347656 9.55516705,11.4492188 9.26224347,10.7929688 L8.36589733,11.671875 Z M16.9251242,1.07226562 C16.5736159,0.720703125 16.1752399,0.454101563 15.729996,0.272460938 C15.2847522,0.0908203125 14.8219329,0 14.3415383,0 C13.3338812,0.01171875 12.4726859,0.369140625 11.7579523,1.07226562 L9.49072386,3.26953125 C8.9283106,3.8203125 8.58559001,4.48535156 8.46256211,5.26464844 C8.33953421,6.04394531 8.44791593,6.7734375 8.78770728,7.453125 L9.66647801,6.57421875 C9.52587469,6.15234375 9.51122851,5.71289062 9.62253947,5.25585938 C9.73385043,4.79882812 9.95354311,4.40039062 10.2816175,4.06054688 L12.548846,1.86328125 C12.6660154,1.74609375 12.7949018,1.640625 12.9355051,1.546875 C13.0761084,1.453125 13.2225702,1.37402344 13.3748905,1.30957031 C13.5272107,1.24511719 13.6853895,1.19824219 13.8494267,1.16894531 C14.0134639,1.13964844 14.1775011,1.125 14.3415383,1.125 C15.0445549,1.125 15.642119,1.37109375 16.1342306,1.86328125 C16.6263422,2.35546875 16.872398,2.953125 16.872398,3.65625 C16.872398,4.359375 16.6263422,4.95117188 16.1342306,5.43164062 L13.8670021,7.71679688 C13.6326632,7.95117188 13.3602443,8.1328125 13.0497453,8.26171875 C12.7392463,8.390625 12.4141011,8.45507812 12.0743098,8.45507812 C11.8048201,8.45507812 11.6407829,8.44921875 11.5821982,8.4375 L10.6858521,9.33398438 C10.8381723,9.39257812 10.9934218,9.43945312 11.1516005,9.47460938 C11.3097793,9.50976562 11.4620995,9.53613281 11.6085613,9.55371094 C11.7550231,9.57128906 11.9102726,9.58007812 12.0743098,9.58007812 C12.5547045,9.58007812 13.0175237,9.48925781 13.4627676,9.30761719 C13.9080114,9.12597656 14.3063874,8.859375 14.6578957,8.5078125 L16.9251242,6.24023438 C17.7218763,5.44335937 18.0733846,4.4765625 17.9796491,3.33984375 C17.8976305,2.44921875 17.5461222,1.69335938 16.9251242,1.07226562 Z" id="Shape"></path>
        </g>
    </g>
</svg>