<?xml version="1.0" encoding="UTF-8"?>
<svg width="30px" height="30px" viewBox="0 0 30 30" version="1.1" xmlns="http://www.w3.org/2000/svg" xmlns:xlink="http://www.w3.org/1999/xlink">
    <title>Icon/Linkedin</title>
    <g id="Icon/Linkedin" stroke="none" stroke-width="1" fill="none" fill-rule="evenodd" fill-opacity="0.9" opacity="0.802432106">
        <g fill="#000000">
            <path d="M17.45691,13.8697884 C17.6981758,13.5959166 17.8968012,13.3180883 18.1445935,13.082242 C18.9060273,12.3568993 19.8069123,11.9911507 20.8585612,12.0001626 C21.4365982,12.005218 22.0078911,12.0471999 22.5652606,12.2100723 C23.8396833,12.582415 24.5804496,13.4688717 24.9337549,14.7267919 C25.1985163,15.670177 25.2474656,16.6386195 25.249206,17.610359 C25.2526869,19.6600017 25.2433321,21.7094247 25.2476831,23.7588476 C25.2481182,23.9507337 25.1948179,24.0010681 25.0079403,23.9995295 C23.9630355,23.9909573 22.9176957,23.9905177 21.872791,24 C21.6887416,24.0015077 21.649147,23.9439199 21.6497997,23.768299 C21.655456,21.8182261 21.6569789,19.8681531 21.6506699,17.9178603 C21.649147,17.4292431 21.6184721,16.9408456 21.4827193,16.4656362 C21.2327515,15.5901695 20.6125093,15.1444134 19.7048802,15.1927696 C18.4657011,15.2589297 17.8213105,15.878768 17.6631498,17.1520742 C17.6255132,17.4562786 17.6076739,17.7604829 17.6078915,18.0668853 C17.6094144,19.9635467 17.6059335,21.860208 17.6128952,23.7566496 C17.6135479,23.9458981 17.5667741,24.0015077 17.3755454,24 C16.3228088,23.9905177 15.2700722,23.9916167 14.2175531,23.9990899 C14.0487323,24.0004087 14,23.9544703 14.0002181,23.7819267 C14.0047867,20.0268493 14.0050043,16.2719917 14,12.5169143 C13.999783,12.3311826 14.0600451,12.2881016 14.2338695,12.2894204 C15.2335233,12.2968937 16.2333947,12.2977729 17.232831,12.288761 C17.4168804,12.2870026 17.4643068,12.3472281 17.4603909,12.5232885 C17.4501659,12.971902 17.45691,13.4209551 17.45691,13.8697884" id="Fill-3"></path>
            <path d="M10.7454728,18.0171033 C10.7454728,19.9204744 10.7423117,21.8236204 10.75,23.7269916 C10.7508919,23.9384523 10.698056,24.0024084 10.4785842,24 C9.39454686,23.988221 8.31005793,23.9909233 7.2257948,23.9983549 C7.05215916,23.999706 6.99977493,23.9562429 7,23.7772107 C7.00519399,19.9236272 7.0047424,16.0700437 7.0009039,12.2164603 C7.00067811,12.0570203 7.03951469,12.0002704 7.20931183,12.0011712 C8.30938055,12.0083776 9.40922348,12.0104043 10.5092922,12 C10.7204097,11.9977933 10.7493113,12.07954 10.7488597,12.2603738 C10.7434407,14.1792836 10.7454728,16.0981935 10.7454728,18.0171033" id="Fill-5"></path>
            <path d="M11.25,8.23967394 C11.2511719,9.48495369 10.240827,10.4995305 8.99894971,10.5 C7.77302396,10.5004692 6.75399957,9.48495369 6.75,8.25915344 C6.74602378,7.01950633 7.76410984,5.99882755 9.00364135,6 C10.2344933,6.00117447 11.2488261,7.01246554 11.25,8.23967394" id="Fill-7"></path>
        </g>
    </g>
</svg>