<?xml version="1.0" encoding="UTF-8"?>
<svg width="18px" height="18px" viewBox="0 0 18 18" version="1.1" xmlns="http://www.w3.org/2000/svg" xmlns:xlink="http://www.w3.org/1999/xlink">
    <title>Icon/Mail white</title>
    <g id="Icon/Mail-white" stroke="none" stroke-width="1" fill="none" fill-rule="evenodd">
        <g id="Icon/Mail" transform="translate(0, 0)" fill="#FFFFFF">
            <g id="Mail" transform="translate(-0, 0)">
                <path d="M8.9649439,15.755452 C8.9649439,15.755452 7.21229737,12.3751627 6.72370792,11.266356 L15.730675,2.72528961 L8.9649439,15.755452 Z M2.24123597,8.46067093 L15.1283428,2.28816388 L6.16339893,10.7052189 C6.16115769,10.7029744 2.24123597,8.46067093 2.24123597,8.46067093 L2.24123597,8.46067093 Z M17.3695788,0.0436158668 C16.7218616,0.359536 6.15825356e-16,8.46067093 6.15825356e-16,8.46067093 C6.15825356e-16,8.46067093 5.632226,11.8606 5.60308994,11.827493 C5.59356468,11.8168314 8.9649439,18 8.9649439,18 C8.9649439,18 17.7898105,0.885321373 17.9298878,0.604752871 C18.0525955,0.254042243 17.7898105,-0.131458878 17.3695788,0.0436158668 L17.3695788,0.0436158668 Z" id="Fill-1"></path>
            </g>
        </g>
    </g>
</svg>