<?xml version="1.0" encoding="UTF-8"?>
<svg width="18px" height="18px" viewBox="0 0 18 18" version="1.1" xmlns="http://www.w3.org/2000/svg" xmlns:xlink="http://www.w3.org/1999/xlink">
    <title>Icon/Mail</title>
    <g id="Icon/Mail" stroke="none" stroke-width="1" fill="none" fill-rule="evenodd">
        <g id="Mail" transform="translate(0, 0)" fill="#71BD56">
            <path d="M8.97156554,15.755452 C8.97156554,15.755452 7.21762447,12.3751627 6.72867415,11.266356 L15.7422939,2.72528961 L8.97156554,15.755452 Z M2.24289138,8.46067093 L15.1395168,2.28816388 L6.16795131,10.7052189 C6.16570842,10.7029744 2.24289138,8.46067093 2.24289138,8.46067093 L2.24289138,8.46067093 Z M17.3824082,0.0436158668 C16.7342126,0.359536 6.16280214e-16,8.46067093 6.16280214e-16,8.46067093 C6.16280214e-16,8.46067093 5.63638605,11.8606 5.60722846,11.827493 C5.59769617,11.8168314 8.97156554,18 8.97156554,18 C8.97156554,18 17.8029504,0.885321373 17.9431311,0.604752871 C18.0659294,0.254042243 17.8029504,-0.131458878 17.3824082,0.0436158668 L17.3824082,0.0436158668 Z" id="Fill-1"></path>
        </g>
    </g>
</svg>