<?xml version="1.0" encoding="UTF-8"?>
<svg width="15px" height="15px" viewBox="0 0 15 15" version="1.1" xmlns="http://www.w3.org/2000/svg" xmlns:xlink="http://www.w3.org/1999/xlink">
    <title>Icon/open blue</title>
    <g id="Icon/open-blue" stroke="none" stroke-width="1" fill="none" fill-rule="evenodd">
        <path d="M14.4042056,5.43224299 C14.8014019,5.43224299 15,5.63084112 15,6.02803738 L15,9.0771028 C15,9.47429907 14.8014019,9.6728972 14.4042056,9.6728972 L9.81308411,9.6728972 C9.6728972,9.6728972 9.60280374,9.74299065 9.60280374,9.88317757 L9.60280374,14.4042056 C9.60280374,14.8014019 9.40420561,15 9.00700935,15 L5.99299065,15 C5.59579439,15 5.39719626,14.8014019 5.39719626,14.4042056 L5.39719626,9.88317757 C5.39719626,9.74299065 5.3271028,9.6728972 5.18691589,9.6728972 L0.595794393,9.6728972 C0.198598131,9.6728972 0,9.47429907 0,9.0771028 L0,6.02803738 C0,5.63084112 0.198598131,5.43224299 0.595794393,5.43224299 L5.18691589,5.43224299 C5.3271028,5.43224299 5.39719626,5.36214953 5.39719626,5.22196262 L5.39719626,0.595794393 C5.39719626,0.198598131 5.59579439,0 5.99299065,0 L9.00700935,0 C9.40420561,0 9.60280374,0.198598131 9.60280374,0.595794393 L9.60280374,5.22196262 C9.60280374,5.36214953 9.6728972,5.43224299 9.81308411,5.43224299 L14.4042056,5.43224299 Z" id="Path" fill="#004B6F" fill-rule="nonzero"></path>
    </g>
</svg>