<?xml version="1.0" encoding="UTF-8"?>
<svg width="18px" height="18px" viewBox="0 0 18 18" version="1.1" xmlns="http://www.w3.org/2000/svg" xmlns:xlink="http://www.w3.org/1999/xlink">
    <title>Icon/Profile white</title>
    <g id="Icon/Profile-white" stroke="none" stroke-width="1" fill="none" fill-rule="evenodd">
        <g id="Icon/Profil" fill="#FFFFFF" fill-rule="nonzero">
            <path d="M9.00879765,1.12609971 C9.46627566,1.12609971 9.93841642,1.2170088 10.4252199,1.39882698 C10.9120235,1.58064516 11.3372434,1.80938416 11.7008798,2.08504399 C12.0645161,2.36070381 12.3636364,2.66568915 12.5982405,3 C12.8328446,3.33431085 12.9501466,3.64809384 12.9501466,3.94134897 L12.9501466,6.75659824 C12.9501466,7.42521994 12.8093842,8.17008798 12.5278592,8.99120235 C12.2463343,9.81231672 11.829912,10.4340176 11.2785924,10.856305 C11.1847507,10.9384164 11.1026393,11.0351906 11.0322581,11.1466276 C10.9618768,11.2580645 10.9120235,11.3753666 10.8826979,11.4985337 C10.8533724,11.6217009 10.8445748,11.7478006 10.856305,11.8768328 C10.914956,12.2991202 11.1319648,12.5982405 11.5073314,12.7741935 L16.4164223,15.0967742 C16.4164223,15.0967742 16.4281525,15.0997067 16.4516129,15.1055718 C16.4750733,15.111437 16.4985337,15.1202346 16.5219941,15.1319648 C16.5454545,15.143695 16.5747801,15.1612903 16.6099707,15.1847507 C16.6451613,15.2082111 16.6774194,15.2346041 16.7067449,15.2639296 C16.7360704,15.2932551 16.7653959,15.3313783 16.7947214,15.3782991 C16.8240469,15.4252199 16.8445748,15.483871 16.856305,15.5542522 C16.8680352,15.6246334 16.8739003,15.7008798 16.8739003,15.7829912 L16.8739003,16.8739003 L1.12609971,16.8914956 L1.12609971,15.7478006 C1.12609971,15.4545455 1.28445748,15.2375367 1.60117302,15.0967742 L6.54545455,12.7565982 C6.92082111,12.5806452 7.13489736,12.2844575 7.18768328,11.8680352 C7.24046921,11.4516129 7.1026393,11.1143695 6.77419355,10.856305 C6.23460411,10.4222874 5.81524927,9.79178886 5.51612903,8.96480938 C5.2170088,8.13782991 5.06744868,7.40175953 5.06744868,6.75659824 L5.06744868,3.94134897 C5.06744868,3.5542522 5.26099707,3.14076246 5.64809384,2.70087977 C6.03519062,2.26099707 6.53958944,1.88856305 7.16129032,1.58357771 C7.7829912,1.27859238 8.39882698,1.12609971 9.00879765,1.12609971 Z M9.00879765,0 C8.19941349,0 7.39882698,0.196480938 6.60703812,0.589442815 C5.81524927,0.982404692 5.17302053,1.48680352 4.68035191,2.1026393 C4.18768328,2.71847507 3.94134897,3.3313783 3.94134897,3.94134897 L3.94134897,6.75659824 C3.94134897,7.51906158 4.1202346,8.39589443 4.47800587,9.38709677 C4.83577713,10.3782991 5.36656891,11.1612903 6.07038123,11.7360704 L1.12609971,14.0762463 C1.09090909,14.0879765 1.04985337,14.1055718 1.00293255,14.1290323 C0.95601173,14.1524927 0.868035191,14.2052786 0.739002933,14.28739 C0.609970674,14.3695015 0.495601173,14.4516129 0.395894428,14.5337243 C0.296187683,14.6158358 0.205278592,14.7184751 0.123167155,14.8416422 C0.0410557185,14.9648094 0,15.0791789 0,15.1847507 L0,16.8914956 C0,17.1964809 0.108504399,17.457478 0.325513196,17.6744868 C0.542521994,17.8914956 0.809384164,18 1.12609971,18 L16.8914956,18 C17.1964809,18 17.457478,17.8914956 17.6744868,17.6744868 C17.8914956,17.457478 18,17.1964809 18,16.8914956 L18,15.1847507 C18,15.0674487 17.9618768,14.9472141 17.8856305,14.8240469 C17.8093842,14.7008798 17.7155425,14.5953079 17.6041056,14.5073314 C17.4926686,14.4193548 17.3841642,14.340176 17.2785924,14.2697947 C17.1730205,14.1994135 17.0791789,14.1466276 16.9970674,14.111437 L16.8914956,14.0762463 L11.9824047,11.7360704 C12.686217,11.1847507 13.2111437,10.4222874 13.5571848,9.44868035 C13.9032258,8.47507331 14.0762463,7.57771261 14.0762463,6.75659824 L14.0762463,3.94134897 C14.0762463,3.48387097 13.9266862,3.01759531 13.627566,2.54252199 C13.3284457,2.06744868 12.9442815,1.64222874 12.4750733,1.26686217 C12.0058651,0.891495601 11.4604106,0.586510264 10.8387097,0.351906158 C10.2170088,0.117302053 9.60703812,0 9.00879765,0 Z" id="Shape"></path>
        </g>
    </g>
</svg>