<?xml version="1.0" encoding="UTF-8"?>
<svg width="18px" height="18px" viewBox="0 0 18 18" version="1.1" xmlns="http://www.w3.org/2000/svg" xmlns:xlink="http://www.w3.org/1999/xlink">
    <title>Icon/Suche blau</title>
    <g id="Icon/Suche-blau" stroke="none" stroke-width="1" fill="none" fill-rule="evenodd" fill-opacity="0.9">
        <g id="Magnifier---simple-line-icons" fill="#004B6F" fill-rule="nonzero">
            <path d="M17.8945312,17.0332031 L12.4277344,11.53125 C13.5175781,10.2304688 14.0625,8.73046875 14.0625,7.03125 C14.0625,5.75390625 13.7490234,4.57617188 13.1220703,3.49804688 C12.4951172,2.41992188 11.6396484,1.56738281 10.5556641,0.940429688 C9.47167969,0.313476563 8.29394531,0 7.02246094,0 C5.75097656,0 4.57617187,0.313476563 3.49804688,0.940429688 C2.41992188,1.56738281 1.56738281,2.41992188 0.940429688,3.49804688 C0.313476563,4.57617188 0,5.75390625 0,7.03125 C0,8.30859375 0.313476563,9.48632812 0.940429688,10.5644531 C1.56738281,11.6425781 2.41992188,12.4951172 3.49804688,13.1220703 C4.57617187,13.7490234 5.75390625,14.0625 7.03125,14.0625 C8.77734375,14.0625 10.3125,13.4882812 11.6367188,12.3398438 L17.0859375,17.8242188 C17.203125,17.9414062 17.3378906,18 17.4902344,18 C17.6425781,18 17.7744141,17.9443359 17.8857422,17.8330078 C17.9970703,17.7216797 18.0527344,17.5869141 18.0527344,17.4287109 C18.0527344,17.2705078 18,17.1386719 17.8945312,17.0332031 Z M7.03125,12.9550781 C5.953125,12.9550781 4.95996094,12.6884766 4.05175781,12.1552734 C3.14355469,11.6220703 2.42578125,10.9013672 1.8984375,9.99316406 C1.37109375,9.08496094 1.10742188,8.09765625 1.10742188,7.03125 C1.10742188,5.96484375 1.37109375,4.97753906 1.8984375,4.06933594 C2.42578125,3.16113281 3.14355469,2.44042969 4.05175781,1.90722656 C4.95996094,1.37402344 5.95019531,1.10742188 7.02246094,1.10742188 C8.09472656,1.10742188 9.08496094,1.37402344 9.99316406,1.90722656 C10.9013672,2.44042969 11.6191406,3.16113281 12.1464844,4.06933594 C12.6738281,4.97753906 12.9375,5.96484375 12.9375,7.03125 C12.9375,7.48828125 12.8847656,7.93945312 12.7792969,8.38476562 C12.6738281,8.83007812 12.5244141,9.24609375 12.3310547,9.6328125 C12.1376953,10.0195312 11.90625,10.3857422 11.6367188,10.7314453 C11.3671875,11.0771484 11.0625,11.3847656 10.7226562,11.6542969 C10.3828125,11.9238281 10.0195312,12.1552734 9.6328125,12.3486328 C9.24609375,12.5419922 8.83007812,12.6914062 8.38476562,12.796875 C7.93945313,12.9023438 7.48828125,12.9550781 7.03125,12.9550781 Z" id="Shape"></path>
        </g>
    </g>
</svg>