<?xml version="1.0" encoding="UTF-8"?>
<svg width="26px" height="18px" viewBox="0 0 26 18" version="1.1" xmlns="http://www.w3.org/2000/svg" xmlns:xlink="http://www.w3.org/1999/xlink">
    <title>Icon/youtube</title>
    <defs>
        <polygon id="path-1" points="0 0 25.7639 0 25.7639 18.1519 0 18.1519"></polygon>
    </defs>
    <g id="Icon/youtube" stroke="none" stroke-width="1" fill="none" fill-rule="evenodd">
        <g id="Group-3">
            <mask id="mask-2" fill="white">
                <use xlink:href="#path-1"></use>
            </mask>
            <g id="Clip-2"></g>
            <path d="M10.2469,12.9069 L10.2469,5.2459 L16.9809,9.0759 L10.2469,12.9069 Z M25.2259,2.8349 C24.9289,1.7189 24.0559,0.8409 22.9479,0.5419 C20.9379,-0.0001 12.8819,-0.0001 12.8819,-0.0001 C12.8819,-0.0001 4.8249,-0.0001 2.8159,0.5419 C1.7079,0.8409 0.8349,1.7189 0.5379,2.8349 C-0.0001,4.8569 -0.0001,9.0759 -0.0001,9.0759 C-0.0001,9.0759 -0.0001,13.2959 0.5379,15.3179 C0.8349,16.4329 1.7079,17.3119 2.8159,17.6099 C4.8249,18.1519 12.8819,18.1519 12.8819,18.1519 C12.8819,18.1519 20.9379,18.1519 22.9479,17.6099 C24.0559,17.3119 24.9289,16.4329 25.2259,15.3179 C25.7639,13.2959 25.7639,9.0759 25.7639,9.0759 C25.7639,9.0759 25.7639,4.8569 25.2259,2.8349 L25.2259,2.8349 Z" id="Fill-1" fill="#464646" mask="url(#mask-2)"></path>
        </g>
    </g>
</svg>