<?xml version="1.0" encoding="UTF-8"?>
<svg width="17px" height="11px" viewBox="0 0 17 11" version="1.1" xmlns="http://www.w3.org/2000/svg" xmlns:xlink="http://www.w3.org/1999/xlink">
    <title>Icon/„</title>
    <g id="Icon/„" stroke="none" stroke-width="1" fill="none" fill-rule="evenodd">
        <path d="M7.76,0 C8.048,0 8.256,0.088 8.384,0.264 C8.512,0.44 8.528,0.656 8.432,0.912 L5.216,10.176 C5.088,10.624 4.768,10.848 4.256,10.848 L0.752,10.848 C0.464,10.848 0.256,10.768 0.128,10.608 C0,10.448 -0.032,10.224 0.032,9.936 L2.048,0.72 C2.144,0.24 2.432,0 2.912,0 L7.76,0 Z M16.256,0 C16.544,0 16.752,0.088 16.88,0.264 C17.008,0.44 17.024,0.656 16.928,0.912 L13.664,10.176 C13.536,10.624 13.216,10.848 12.704,10.848 L9.152,10.848 C8.864,10.848 8.656,10.76 8.528,10.584 C8.4,10.408 8.368,10.192 8.432,9.936 L10.544,0.72 C10.64,0.24 10.928,0 11.408,0 L16.256,0 Z" id="Shape" fill="#004B6F" fill-rule="nonzero"></path>
    </g>
</svg>